<?xml version="1.0" encoding="utf-8"?>
<!-- Generator: Adobe Illustrator 25.0.0, SVG Export Plug-In . SVG Version: 6.00 Build 0)  -->
<svg version="1.1" id="Layer_1" xmlns="http://www.w3.org/2000/svg" xmlns:xlink="http://www.w3.org/1999/xlink" x="0px" y="0px"
	 viewBox="0 0 512 512" style="enable-background:new 0 0 512 512;" xml:space="preserve">
<style type="text/css">
	.st0{fill:#0091C8;}
	.st1{fill:#AFE6FF;}
	.st2{fill:#94DEFF;}
	.st3{fill:#0073AA;}
	.st4{fill:#FFFFFF;}
	.st5{fill:#E1FAFF;}
	.st6{fill:#6EE1FF;}
	.st7{fill:#FE646F;}
	.st8{fill:#5D913F;}
	.st9{fill:#3D772A;}
	.st10{fill:#6EAA50;}
	.st11{fill:#97D729;}
	.st12{fill:#8BC727;}
	.st13{fill:#FEE45A;}
	.st14{fill:#FFD23C;}
	.st15{fill:#FAF58C;}
</style>
<g>
	<g>
		<g>
			<path class="st0" d="M-195.5,279.4h-238c-17.8,0-32.2-14.4-32.2-32.2s14.4-32.2,32.2-32.2h238c17.8,0,32.2,14.4,32.2,32.2
				C-163.2,265-177.7,279.4-195.5,279.4L-195.5,279.4z"/>
		</g>
		<g>
			<path class="st1" d="M-171.9,82.7l16.6-16.6l16.6,16.6l16.6-16.6l0.9,0.9v-79.7c0-21.9-17.8-39.7-39.7-39.7h-113V85.5h66
				l19.3-19.3L-171.9,82.7z"/>
		</g>
		<g>
			<path class="st2" d="M-207.9,85.5l19.3-19.3l10.2,10.2v-89.1c0-18,12-33.2,28.5-38.1c-3.5-1-7.3-1.6-11.1-1.6h-113V85.5
				L-207.9,85.5L-207.9,85.5z"/>
		</g>
		<g>
			<path class="st3" d="M-202.9,258.4h-223.5c-5.8,0-10.4-4.7-10.4-10.4s4.7-10.4,10.4-10.4h223.5c5.8,0,10.4,4.7,10.4,10.4
				C-192.4,253.8-197.1,258.4-202.9,258.4L-202.9,258.4z"/>
		</g>
		<g>
			<path class="st4" d="M-163.2-52.3h-223.5c-21.9,0-39.7,17.8-39.7,39.7V248h223.5V-12.7C-202.9-34.6-185.1-52.3-163.2-52.3
				L-163.2-52.3z"/>
		</g>
		<g>
			<path class="st5" d="M-354.8-52.3h-32c-21.9,0-39.7,17.8-39.7,39.7V248h32V-12.7C-394.4-34.6-376.7-52.3-354.8-52.3z"/>
		</g>
		<g>
			<path class="st6" d="M-394.4,15.9h91v20.9h-91V15.9z"/>
		</g>
		<g>
			<path class="st7" d="M-266.1,15.9h32v20.9h-32V15.9z"/>
		</g>
		<g>
			<path class="st6" d="M-394.4,73h91V94h-91V73z"/>
		</g>
		<g>
			<path class="st7" d="M-266.1,73h32V94h-32V73z"/>
		</g>
		<g>
			<path class="st6" d="M-394.4,131.9h91v20.9h-91V131.9z"/>
		</g>
		<g>
			<path class="st7" d="M-266.1,131.9h32v20.9h-32V131.9z"/>
		</g>
	</g>
	<g>
		<g>
			<path class="st8" d="M-373.9,207h268.5v129.9h-268.5V207z"/>
		</g>
		<g>
			<path class="st9" d="M-121.1,222.7v98.5h-237.1v-98.5H-121.1z M-105.4,207h-268.5v129.9h268.5V207z"/>
		</g>
		<g>
			<path class="st9" d="M-373.9,243.9c4.3,3,9.5,4.8,15.1,4.8c14.6,0,26.4-11.8,26.4-26.4c0-5.7-1.8-10.9-4.8-15.2h-36.7
				L-373.9,243.9L-373.9,243.9z"/>
		</g>
		<g>
			<path class="st9" d="M-358.8,295.6c-5.6,0-10.8,1.8-15.1,4.8v36.5h37c2.9-4.2,4.5-9.3,4.5-14.8
				C-332.4,307.4-344.2,295.6-358.8,295.6z"/>
		</g>
		<g>
			<path class="st9" d="M-149.9,222.2c0,14.6,11.8,26.4,26.4,26.4c6.9,0,13.3-2.7,18-7.1V207H-145
				C-148.1,211.3-149.9,216.6-149.9,222.2L-149.9,222.2z"/>
		</g>
		<g>
			<path class="st9" d="M-105.4,302.7c-4.7-4.4-11-7.1-18-7.1c-14.6,0-26.4,11.8-26.4,26.4c0,5.5,1.7,10.6,4.5,14.8h39.9V302.7z"/>
		</g>
		<g>
			<circle class="st9" cx="-239.7" cy="271.9" r="44.1"/>
		</g>
		<g>
			<g>
				<path class="st10" d="M-347,263.6h50.7v16.7H-347L-347,263.6z"/>
			</g>
		</g>
		<g>
			<g>
				<path class="st10" d="M-183,263.6h50.7v16.7H-183V263.6z"/>
			</g>
		</g>
		<g>
			<g>
				<path class="st10" d="M-242.7,295.4c-4.7-0.1-8.5-1-12.3-2.7v-10.6l7.1-0.5v4.1c0,1.3,0.2,1.8,1.4,2.2c1,0.4,2.4,0.6,3.8,0.6
					v-13.3c-6.6-1.8-12.5-4.6-12.5-12.8c0-7.1,4.9-11.9,12.5-13v-6.6h5.3v6.4c3.8,0.2,7.5,1.1,11,2.7v10l-7,0.4v-3.8
					c0-1.3-0.2-1.8-1.4-2.2c-0.8-0.2-1.7-0.4-2.6-0.5v12.5h0.1c6.3,1.9,12.8,4.7,12.8,13.3c0,7.7-5.3,12.3-12.9,13.5v7.3h-5.3V295.4
					z M-242.7,266.6v-10.3c-2.3,0.8-3.7,2.4-3.7,5.3C-246.4,264.2-244.9,265.5-242.7,266.6z M-237.3,276.9V288
					c2.4-0.8,4.1-2.6,4.1-5.9C-233.3,279.4-234.9,277.9-237.3,276.9z"/>
			</g>
		</g>
	</g>
	<g>
		<g>
			<path class="st11" d="M-338.6,241.3h268.5v129.9h-268.5V241.3z"/>
		</g>
		<g>
			<path class="st10" d="M-85.8,257v98.5H-323V257L-85.8,257z M-70.2,241.3h-268.5v129.9h268.5V241.3z"/>
		</g>
		<g>
			<path class="st10" d="M-338.6,278.2c4.3,3,9.5,4.8,15.1,4.8c14.6,0,26.4-11.8,26.4-26.4c0-5.7-1.8-10.9-4.8-15.2h-36.7
				L-338.6,278.2L-338.6,278.2z"/>
		</g>
		<g>
			<path class="st10" d="M-323.5,329.9c-5.6,0-10.8,1.8-15.1,4.8v36.5h37c2.9-4.2,4.5-9.3,4.5-14.8
				C-297.1,341.8-308.9,329.9-323.5,329.9z"/>
		</g>
		<g>
			<path class="st10" d="M-114.6,256.6c0,14.6,11.8,26.4,26.4,26.4c6.9,0,13.3-2.7,18-7.1v-34.6h-39.6
				C-112.8,245.6-114.6,250.9-114.6,256.6L-114.6,256.6z"/>
		</g>
		<g>
			<path class="st10" d="M-70.2,337c-4.7-4.4-11-7.1-18-7.1c-14.6,0-26.4,11.8-26.4,26.4c0,5.5,1.7,10.6,4.5,14.8h39.9V337z"/>
		</g>
		<g>
			<circle class="st10" cx="-204.4" cy="306.3" r="44.1"/>
		</g>
		<g>
			<g>
				<path class="st12" d="M-311.7,297.9h50.7v16.7h-50.7L-311.7,297.9z"/>
			</g>
		</g>
		<g>
			<g>
				<path class="st12" d="M-147.7,297.9H-97v16.7h-50.7V297.9z"/>
			</g>
		</g>
		<g>
			<g>
				<path class="st11" d="M-207.4,329.8c-4.7-0.1-8.5-1-12.3-2.7v-10.6l7.1-0.5v4.1c0,1.3,0.2,1.8,1.4,2.2c1,0.4,2.4,0.6,3.8,0.6
					v-13.3c-6.6-1.8-12.5-4.6-12.5-12.8c0-7.1,4.9-11.9,12.5-13v-6.6h5.3v6.4c3.8,0.2,7.5,1.1,11,2.7v10l-7,0.4v-3.8
					c0-1.3-0.2-1.8-1.4-2.2c-0.8-0.2-1.7-0.4-2.6-0.5v12.5h0.1c6.3,1.9,12.8,4.7,12.8,13.3c0,7.7-5.3,12.3-12.9,13.5v7.3h-5.3V329.8
					z M-207.4,300.9v-10.3c-2.3,0.8-3.7,2.4-3.7,5.3C-211.1,298.5-209.6,299.8-207.4,300.9L-207.4,300.9z M-202,311.2v11.1
					c2.4-0.8,4.1-2.6,4.1-5.9C-198,313.7-199.6,312.2-202,311.2z"/>
			</g>
		</g>
	</g>
	<g>
		<g>
			<circle class="st13" cx="-452.1" cy="347.6" r="55.9"/>
		</g>
		<g>
			<path class="st14" d="M-452.1,311c23.2,0,42.3,17.8,44.3,40.5c0.1-1.3,0.2-2.6,0.2-4c0-24.6-19.9-44.5-44.5-44.5
				s-44.5,19.9-44.5,44.5c0,1.3,0.1,2.7,0.2,4C-494.4,328.9-475.4,311-452.1,311z"/>
		</g>
		<g>
			<path class="st15" d="M-452.1,303.6c24.3,0,44,19.7,44,44s-19.7,44-44,44c-24.3,0-44-19.7-44-44S-476.4,303.6-452.1,303.6
				 M-452.1,291.7c-30.9,0-55.9,25-55.9,55.9s25,55.9,55.9,55.9s55.9-25,55.9-55.9C-396.2,316.7-421.2,291.7-452.1,291.7z"/>
		</g>
		<g>
			<g>
				<path class="st14" d="M-455.9,377.4c-6-0.2-10.8-1.3-15.5-3.4v-13.5l8.9-0.6v5.2c0,1.6,0.3,2.3,1.8,2.8c1.3,0.5,3,0.7,4.8,0.7
					v-16.9c-8.3-2.3-15.8-5.8-15.8-16.3c0-9,6.2-15.1,15.8-16.4v-8.3h6.8v8.1c4.9,0.3,9.6,1.4,14,3.4V335l-8.8,0.5v-4.9
					c0-1.6-0.3-2.3-1.8-2.8c-1-0.3-2.2-0.5-3.3-0.6v15.9h0.1c7.9,2.4,16.3,6,16.3,16.9c0,9.8-6.8,15.6-16.3,17.1v9.3h-6.8V377.4z
					 M-455.9,340.8v-13c-2.9,1-4.7,3.1-4.7,6.7C-460.6,337.7-458.8,339.4-455.9,340.8z M-449.1,353.9V368c3.1-1,5.1-3.3,5.1-7.5
					C-444,357.1-446,355.2-449.1,353.9z"/>
			</g>
		</g>
	</g>
</g>
</svg>
